<svg width="35" height="36" viewBox="0 0 35 36" fill="none" xmlns="http://www.w3.org/2000/svg">
<path fill-rule="evenodd" clip-rule="evenodd" d="M23.645 10.3453L7.84532 16.2185C7.81877 16.228 7.79271 16.2389 7.76748 16.2514C7.71176 16.2791 7.66063 16.3139 7.61475 16.3542C7.52167 16.4367 7.44924 16.5443 7.40876 16.6703C7.39565 16.7115 7.38598 16.7542 7.38041 16.7979C7.36353 16.9268 7.38237 17.0538 7.42973 17.1673C7.44973 17.2153 7.4748 17.2606 7.5043 17.3028C7.50528 17.3028 7.50446 17.3032 7.50462 17.3032C7.60016 17.4394 7.74322 17.5423 7.91627 17.5833H7.9166C7.91709 17.5835 7.91742 17.5835 7.91775 17.5835C7.91824 17.5836 7.9184 17.5838 7.91873 17.5838C7.91955 17.584 7.91972 17.584 7.92021 17.5841L15.6445 19.37L24.3826 10.5101C24.1896 10.3142 23.9015 10.2499 23.645 10.3453Z" fill="#2A74DB"/>
<path fill-rule="evenodd" clip-rule="evenodd" d="M24.3061 10.6343L15.568 19.4942L17.3295 27.3263C17.3295 27.3268 17.3296 27.3269 17.3298 27.3276C17.3298 27.3281 17.3298 27.3283 17.33 27.3288C17.33 27.3291 17.3301 27.3293 17.3303 27.3299C17.3303 27.3301 17.3303 27.3301 17.3303 27.3301C17.3708 27.5057 17.472 27.6508 17.6064 27.7477C17.6066 27.7478 17.6067 27.747 17.6069 27.748C17.6484 27.7779 17.6933 27.8033 17.7406 27.8236C17.8526 27.8718 17.9776 27.8907 18.1048 27.8736C18.1479 27.868 18.1901 27.8582 18.2308 27.8447C18.3548 27.8038 18.4612 27.7304 18.5425 27.6358C18.5821 27.5895 18.6164 27.5376 18.6437 27.4811C18.656 27.4556 18.667 27.4291 18.6762 27.4022L24.4686 11.3822C24.5627 11.1221 24.4994 10.83 24.3061 10.6343Z" fill="#2A74DB"/>
<path fill-rule="evenodd" clip-rule="evenodd" d="M27.4807 3.20324C24.1614 0.838461 20.0949 -0.278293 16.0305 0.0590095C11.9179 0.400134 8.04382 2.21974 5.12195 5.18236C-0.863851 11.2516 -1.7019 20.7613 3.12958 27.7938C3.41194 28.2047 3.86373 28.425 4.32307 28.425C4.60969 28.425 4.89925 28.3393 5.15227 28.1605C5.31401 28.0462 5.44544 27.9044 5.5454 27.7461C5.85267 27.2592 5.8602 26.613 5.5141 26.1094C1.48839 20.2495 2.18764 12.3247 7.17693 7.26582C9.61225 4.79654 12.8407 3.28017 16.2676 2.99587C19.6569 2.7144 23.0453 3.64439 25.81 5.6142C26.3024 5.96497 26.9356 5.96247 27.4161 5.65807C27.5759 5.55671 27.719 5.42196 27.8342 5.2558C28.2955 4.59 28.1372 3.67097 27.4807 3.20324Z" fill="#2A74DB"/>
<path fill-rule="evenodd" clip-rule="evenodd" d="M31.7673 7.43695C31.3048 6.77199 30.3984 6.61281 29.7423 7.08204C29.5784 7.19935 29.4455 7.34474 29.3459 7.50724C29.0468 7.99475 29.0455 8.63646 29.3922 9.1351C31.3423 11.9389 32.2646 15.378 31.9898 18.819C31.7117 22.2982 30.2157 25.576 27.7776 28.0483C24.9642 30.9008 21.2336 32.3699 17.4781 32.3698C14.6438 32.3696 11.7952 31.5325 9.31774 29.8216C8.81776 29.4763 8.18111 29.4904 7.7044 29.8063C7.54872 29.9095 7.41009 30.0444 7.29882 30.2097C6.84702 30.8823 7.01859 31.7989 7.68179 32.257C10.6563 34.311 14.074 35.3159 17.4767 35.3156C21.9814 35.3153 26.4582 33.5532 29.8324 30.1319C32.7577 27.1657 34.5526 23.2325 34.8863 19.057C35.2161 14.9299 34.1083 10.8032 31.7673 7.43695Z" fill="#2A74DB"/>
<mask id="mask0" mask-type="alpha" maskUnits="userSpaceOnUse" x="2" y="1" width="26" height="27">
<path fill-rule="evenodd" clip-rule="evenodd" d="M2.11133 14.794V1.91211H27.5678V14.794V27.676H2.11133V14.794Z" fill="white"/>
</mask>
<g mask="url(#mask0)">
<path fill-rule="evenodd" clip-rule="evenodd" d="M5.66591 26.0396C1.64003 20.1798 2.33944 12.2548 7.32873 7.19597C9.76405 4.72668 12.9924 3.21014 16.4194 2.92585C19.8087 2.64437 23.1971 3.57453 25.9618 5.54418C26.4542 5.89527 27.0873 5.89245 27.5678 5.58821C24.8743 3.29439 21.4005 1.91211 17.6079 1.91211C9.0494 1.91211 2.11133 8.94695 2.11133 17.6248C2.11133 21.4481 3.45853 24.9517 5.69737 27.6761C6.00447 27.1894 6.01201 26.5434 5.66591 26.0396Z" fill="#2A74DB"/>
</g>
</svg>
