<svg width="90" height="28" viewBox="0 0 90 28" fill="none" xmlns="http://www.w3.org/2000/svg">
<path fill-rule="evenodd" clip-rule="evenodd" d="M90 8.60981C89.6904 8.78245 89.3996 9.02209 89.0676 9.11461C88.1619 9.3663 87.2366 9.54886 86.3231 9.77396C85.8123 9.90016 85.6558 10.2203 85.6612 10.7648C85.6917 13.9878 85.6772 17.2116 85.6758 20.4346C85.675 21.3896 85.5983 21.4619 84.6204 21.4637C84.0552 21.4644 83.49 21.4509 82.9252 21.4669C82.3959 21.4825 82.1246 21.2733 82.125 20.7189C82.1303 16.1431 82.1293 11.5673 82.1264 6.99156C82.1261 6.51654 82.3411 6.28328 82.8231 6.28896C83.3656 6.29534 83.908 6.28896 84.4508 6.28931C85.4685 6.29037 85.4685 6.29073 85.5673 7.09046C86.6735 6.76575 87.7979 6.41728 88.9336 6.11206C89.3758 5.99331 89.7853 6.10604 90 6.58035V8.60981Z" fill="#3D4954"/>
<path fill-rule="evenodd" clip-rule="evenodd" d="M52.95 0.935059C53.1083 1.18001 53.3773 1.41563 53.4028 1.67165C53.4681 2.32556 53.4201 2.98845 53.4261 3.64755C53.4302 4.10217 53.2118 4.35335 52.7042 4.35439C51.8698 4.35542 51.0358 4.36234 50.2018 4.3492C49.7475 4.34193 49.5051 4.11877 49.5093 3.68215C49.5153 3.00091 49.4732 2.31691 49.5306 1.63982C49.5509 1.3966 49.7989 1.16929 49.9426 0.935059H52.95Z" fill="#3D4954"/>
<path fill-rule="evenodd" clip-rule="evenodd" d="M3.41599 7.29184C3.85959 7.06044 4.28217 6.81982 4.72121 6.61504C5.9129 6.05997 7.16451 5.94321 8.43994 6.19874C8.82467 6.27575 9.28088 6.39252 9.53352 6.65727C10.1625 7.31739 10.7077 7.10942 11.3853 6.75807C12.4747 6.19306 13.6797 6.03903 14.8924 6.07275C17.3378 6.14089 18.7762 7.47213 18.9843 9.98767C19.1217 11.6479 19.0965 13.3234 19.114 14.9925C19.1333 16.8437 19.1227 18.6948 19.1161 20.5464C19.1136 21.3073 18.9598 21.4553 18.217 21.4613C17.6599 21.4655 17.1027 21.4645 16.5452 21.4616C15.7295 21.4577 15.6062 21.3445 15.6048 20.5258C15.5995 17.6358 15.6034 14.7462 15.6006 11.8562C15.6002 11.5861 15.5908 11.3146 15.5655 11.046C15.4152 9.45248 14.9513 9.04789 13.3812 9.13413C13.2477 9.14159 13.1135 9.14939 12.9824 9.17282C11.3198 9.47023 11.2708 9.5767 11.289 11.2557C11.3233 14.3931 11.3086 17.5315 11.3188 20.6695C11.3205 21.2391 11.0563 21.4861 10.4946 21.4666C9.89337 21.446 9.29105 21.4663 8.68907 21.4613C7.95149 21.4553 7.78961 21.3002 7.78821 20.5442C7.7826 17.722 7.78645 14.8999 7.7854 12.0777C7.78505 11.694 7.78505 11.3097 7.76683 10.9267C7.69816 9.45496 6.9357 8.83815 5.50539 9.17992C4.90762 9.32294 4.33122 9.60047 3.78391 9.89149C3.62202 9.97738 3.5155 10.3184 3.51445 10.5434C3.49763 13.8394 3.50359 17.1357 3.50219 20.4321C3.50184 21.3885 3.42615 21.4606 2.46152 21.462C1.90439 21.4631 1.34657 21.4467 0.789791 21.4663C0.213043 21.4865 -0.00104733 21.2136 3.8499e-06 20.6471C0.0087637 16.1094 0.00806291 11.5712 0.000704637 7.03347C3.84991e-06 6.48692 0.229161 6.24949 0.765614 6.26724C1.27754 6.28392 1.79087 6.26972 2.30349 6.27043C3.30352 6.27185 3.30352 6.27185 3.41599 7.29184Z" fill="#3D4954"/>
<path fill-rule="evenodd" clip-rule="evenodd" d="M27.1794 18.6565C27.4479 17.5995 27.7203 16.5436 27.9839 15.4855C28.6506 12.8102 29.3252 10.137 29.9691 7.45595C30.1064 6.88362 30.3501 6.60187 30.9654 6.64252C31.6289 6.68636 32.2972 6.64783 32.9635 6.65384C33.7408 6.66055 33.8714 6.83342 33.6587 7.59099C32.8214 10.5686 31.9812 13.5451 31.1393 16.5217C30.4873 18.8279 29.8483 21.1388 29.1712 23.4377C28.7281 24.9419 28.0716 26.3096 26.4255 26.8147C24.6299 27.3659 22.8263 27.2234 21.0429 26.7571C20.8317 26.7016 20.5596 26.3287 20.5565 26.0996C20.5251 23.9022 20.3341 24.1284 22.313 24.2147C22.9115 24.2412 23.5093 24.3091 24.1075 24.3112C25.3031 24.3151 25.7882 23.9428 26.151 22.7911C26.2442 22.4945 26.3169 22.1912 26.4087 21.855C26.3018 21.8271 26.224 21.7868 26.1479 21.7893C25.0381 21.8292 24.3292 21.2541 23.9846 20.2437C23.6088 19.1436 23.3008 18.0191 22.9831 16.8992C22.1031 13.7968 21.2305 10.6923 20.3613 7.5871C20.1287 6.75741 20.2118 6.65808 21.0838 6.65313C21.7277 6.64959 22.3737 6.68389 23.0149 6.64323C23.5896 6.60682 23.8571 6.84721 23.9902 7.39974C24.8202 10.8408 25.6663 14.2783 26.5191 17.714C26.6029 18.0523 26.7659 18.3705 26.8923 18.6982C26.988 18.6844 27.0837 18.6706 27.1794 18.6565Z" fill="#3D4954"/>
<path fill-rule="evenodd" clip-rule="evenodd" d="M76.8001 12.4272C76.7944 11.1839 76.5218 10.1218 75.3929 9.47714C74.3802 8.89878 73.3298 8.95532 72.3725 9.57417C71.3559 10.2318 71.0897 11.2618 71.0922 12.4272H76.8001ZM71.1275 14.9564C70.9142 16.9602 72.1184 18.3689 74.1226 18.3902C75.6159 18.4059 77.1138 18.2995 78.6042 18.185C79.7892 18.0939 79.8598 18.1113 79.8562 19.252C79.8502 21.1986 79.9918 20.8751 78.252 21.1449C76.3709 21.4367 74.4609 21.6367 72.5676 21.266C69.742 20.7124 67.9951 19.0831 67.6554 16.2991C67.4299 14.451 67.4367 12.5075 67.7628 10.6789C68.3023 7.65619 70.9998 5.88306 74.2218 6.08376C77.9063 6.31343 80.0347 8.3253 80.3683 11.9264C80.4375 12.6757 80.4222 13.4328 80.4371 14.1867C80.4482 14.7305 80.2066 14.9714 79.6108 14.9661C77.0242 14.9431 74.4377 14.9564 71.8508 14.9564H71.1275Z" fill="#3D4954"/>
<path fill-rule="evenodd" clip-rule="evenodd" d="M39.6853 9.78683C41.7952 9.78683 43.8277 9.78929 45.8599 9.78613C47.5581 9.78332 47.4694 9.6586 47.4602 11.3787C47.4592 11.5797 47.45 11.7817 47.4616 11.9819C47.4961 12.563 47.2136 12.7675 46.6498 12.7626C44.591 12.7461 42.5317 12.7563 40.4725 12.7563H39.6853V13.544C39.6853 15.8013 39.6857 18.0582 39.685 20.3155C39.6846 21.4387 39.6565 21.4647 38.5019 21.4651C37.9199 21.4651 37.3379 21.4563 36.7562 21.4672C36.2622 21.4763 36.0074 21.276 36.0085 20.7571C36.0176 15.9077 35.9652 11.0572 36.0454 6.20924C36.0929 3.33325 37.8158 1.61348 40.7537 1.51827C42.8453 1.45047 44.946 1.66759 47.0429 1.75929C47.5904 1.78353 47.8149 2.06108 47.8125 2.6211C47.8023 4.92583 47.9173 4.56677 45.8912 4.58504C44.5259 4.59733 43.1602 4.57204 41.7952 4.59417C40.3082 4.61841 39.8486 5.0639 39.7223 6.53597C39.7012 6.7805 39.6881 7.02643 39.6871 7.27201C39.6825 8.0741 39.6853 8.87654 39.6853 9.78683Z" fill="#3D4954"/>
<path fill-rule="evenodd" clip-rule="evenodd" d="M60.9359 11.4383C61.7108 10.1085 62.482 8.86874 63.1652 7.57876C63.5275 6.89449 63.9543 6.55846 64.7227 6.65493C65.2417 6.71948 65.7748 6.6474 66.2999 6.67537C66.5642 6.68936 66.8244 6.78906 67.0866 6.85002C66.9911 7.09246 66.9293 7.35748 66.7947 7.57302C65.5691 9.54117 64.3449 11.5111 63.0852 13.4556C62.7964 13.9017 62.7846 14.2058 63.0831 14.6566C64.4981 16.7944 65.8783 18.9577 67.2595 21.1198C67.3823 21.3128 67.4217 21.5631 67.5 21.7865C67.2626 21.864 67.0276 21.9985 66.7878 22.0078C66.0432 22.0369 65.2945 21.9809 64.5519 22.0308C63.9902 22.0681 63.6569 21.826 63.3736 21.3598C62.5552 20.0128 61.7136 18.6808 60.8796 17.3438C60.7627 17.1566 60.6391 16.9745 60.4628 16.7051C60.015 17.455 59.6033 18.1429 59.1931 18.8322C58.6638 19.7226 58.169 20.6386 57.5879 21.4914C57.4081 21.755 57.0072 21.9619 56.6887 21.9949C55.9721 22.0691 55.243 22.0286 54.5198 22.0114C54.3404 22.0071 54.0329 21.945 54.0122 21.854C53.9708 21.6711 54.0395 21.4175 54.1451 21.2493C55.5342 19.0384 56.9282 16.8303 58.3474 14.6401C58.6061 14.2406 58.6224 13.9681 58.3518 13.5578C57.04 11.5667 55.7602 9.55193 54.4836 7.53536C54.3638 7.34708 54.3442 7.08959 54.2782 6.86437C54.498 6.79874 54.7168 6.6829 54.9383 6.67645C55.7271 6.65314 56.5183 6.69294 57.3064 6.65744C57.7867 6.63592 58.0755 6.83855 58.3222 7.24236C59.1648 8.62201 60.0294 9.9873 60.9359 11.4383Z" fill="#3D4954"/>
<path fill-rule="evenodd" clip-rule="evenodd" d="M52.8692 14.2794C52.8692 16.5415 52.8719 18.8036 52.8679 21.0653C52.8662 21.8897 52.7321 22.0303 51.9837 22.0353C51.4507 22.0389 50.9178 22.0389 50.3848 22.0353C49.6214 22.0303 49.5043 21.9116 49.5036 21.0664C49.4999 16.9769 49.5019 12.887 49.5019 8.79716C49.5019 8.33986 49.5117 7.88291 49.5006 7.42632C49.4872 6.88597 49.6982 6.62388 50.2238 6.64222C50.8413 6.66379 51.4608 6.66882 52.078 6.64042C52.6583 6.61418 52.879 6.88273 52.8749 7.49355C52.8605 9.75528 52.8692 12.0174 52.8692 14.2794Z" fill="#3D4954"/>
</svg>
