<svg width="35" height="36" viewBox="0 0 35 36" fill="none" xmlns="http://www.w3.org/2000/svg">
<path fill-rule="evenodd" clip-rule="evenodd" d="M23.645 10.6461L7.84532 16.5296C7.81877 16.5391 7.79271 16.55 7.76748 16.5625C7.71176 16.5903 7.66063 16.6251 7.61475 16.6656C7.52167 16.7481 7.44924 16.856 7.40876 16.9821C7.39565 17.0234 7.38598 17.0662 7.38041 17.11C7.36353 17.2391 7.38237 17.3663 7.42973 17.48C7.44973 17.5281 7.4748 17.5735 7.5043 17.6158C7.50528 17.6158 7.50446 17.6161 7.50462 17.6161C7.60016 17.7526 7.74322 17.8557 7.91627 17.8968H7.9166C7.91709 17.8969 7.91742 17.8969 7.91775 17.8969C7.91824 17.8971 7.9184 17.8973 7.91873 17.8973C7.91955 17.8974 7.91972 17.8974 7.92021 17.8976L15.6445 19.6866L24.3826 10.8112C24.1896 10.615 23.9015 10.5506 23.645 10.6461Z" fill="white"/>
<path fill-rule="evenodd" clip-rule="evenodd" d="M24.3061 10.9354L15.568 19.8108L17.3295 27.6565C17.3295 27.657 17.3296 27.6572 17.3298 27.6578C17.3298 27.6583 17.3298 27.6585 17.33 27.659C17.33 27.6593 17.3301 27.6595 17.3303 27.6602C17.3303 27.6603 17.3303 27.6603 17.3303 27.6603C17.3708 27.8363 17.472 27.9816 17.6064 28.0786C17.6066 28.0788 17.6067 28.0779 17.6069 28.0789C17.6484 28.1089 17.6933 28.1344 17.7406 28.1547C17.8526 28.2029 17.9776 28.2219 18.1048 28.2048C18.1479 28.1991 18.1901 28.1893 18.2308 28.1758C18.3548 28.1349 18.4612 28.0613 18.5425 27.9666C18.5821 27.9201 18.6164 27.8682 18.6437 27.8116C18.656 27.786 18.667 27.7595 18.6762 27.7326L24.4686 11.6846C24.5627 11.4241 24.4994 11.1315 24.3061 10.9354Z" fill="white"/>
<path fill-rule="evenodd" clip-rule="evenodd" d="M27.4807 3.49153C24.1614 1.12264 20.0949 0.00393701 16.0305 0.341827C11.9179 0.683545 8.04382 2.50632 5.12195 5.47409C-0.863851 11.554 -1.7019 21.0801 3.12958 28.1249C3.41194 28.5365 3.86373 28.7572 4.32307 28.7572C4.60969 28.7572 4.89925 28.6713 5.15227 28.4922C5.31401 28.3777 5.44544 28.2357 5.5454 28.0771C5.85267 27.5894 5.8602 26.9421 5.5141 26.4376C1.48839 20.5675 2.18764 12.6289 7.17693 7.56119C9.61225 5.0876 12.8407 3.56859 16.2676 3.2838C19.6569 3.00184 23.0453 3.93345 25.81 5.90669C26.3024 6.25807 26.9356 6.25557 27.4161 5.95064C27.5759 5.8491 27.719 5.71411 27.8342 5.54766C28.2955 4.88071 28.1372 3.96008 27.4807 3.49153Z" fill="white"/>
<path fill-rule="evenodd" clip-rule="evenodd" d="M31.7673 7.73266C31.3048 7.06653 30.3984 6.90707 29.7423 7.37712C29.5784 7.49464 29.4455 7.64028 29.3459 7.80307C29.0468 8.29143 29.0455 8.93425 29.3922 9.43376C31.3423 12.2424 32.2646 15.6876 31.9898 19.1345C31.7117 22.6198 30.2157 25.9033 27.7776 28.3799C24.9642 31.2373 21.2336 32.7091 17.4781 32.7089C14.6438 32.7087 11.7952 31.8702 9.31774 30.1562C8.81776 29.8104 8.18111 29.8245 7.7044 30.1409C7.54872 30.2443 7.41009 30.3795 7.29882 30.5451C6.84702 31.2189 7.01859 32.137 7.68179 32.5959C10.6563 34.6535 14.074 35.6602 17.4767 35.6599C21.9814 35.6595 26.4582 33.8943 29.8324 30.4672C32.7577 27.4957 34.5526 23.5557 34.8863 19.3729C35.2161 15.2386 34.1083 11.1047 31.7673 7.73266Z" fill="white"/>
<mask id="mask0" mask-type="alpha" maskUnits="userSpaceOnUse" x="2" y="2" width="26" height="27">
<path fill-rule="evenodd" clip-rule="evenodd" d="M2.11133 15.1025V2.19818H27.5678V15.1025V28.0069H2.11133V15.1025Z" fill="white"/>
</mask>
<g mask="url(#mask0)">
<path fill-rule="evenodd" clip-rule="evenodd" d="M5.66591 26.3675C1.64003 20.4976 2.33944 12.5588 7.32873 7.49112C9.76405 5.01753 12.9924 3.49835 16.4194 3.21356C19.8087 2.9316 23.1971 3.86337 25.9618 5.83645C26.4542 6.18816 27.0873 6.18533 27.5678 5.88056C24.8743 3.58274 21.4005 2.19806 17.6079 2.19806C9.0494 2.19806 2.11133 9.24515 2.11133 17.9381C2.11133 21.7681 3.45853 25.2778 5.69737 28.0069C6.00447 27.5193 6.01201 26.8722 5.66591 26.3675Z" fill="white"/>
</g>
</svg>
