<svg width="16" height="14" viewBox="0 0 16 14" fill="none" xmlns="http://www.w3.org/2000/svg">
<path d="M0.184615 7.70527C0.0615385 7.58219 0 7.39757 0 7.2745C0 7.15142 0.0615385 6.9668 0.184615 6.84373L1.04615 5.98219C1.29231 5.73603 1.66154 5.73603 1.90769 5.98219L1.96923 6.04373L5.35385 9.6745C5.47692 9.79757 5.66154 9.79757 5.78462 9.6745L14.0308 1.12065H14.0923C14.3385 0.874497 14.7077 0.874497 14.9538 1.12065L15.8154 1.98219C16.0615 2.22834 16.0615 2.59757 15.8154 2.84373L5.96923 13.0591C5.84615 13.1822 5.72308 13.2437 5.53846 13.2437C5.35385 13.2437 5.23077 13.1822 5.10769 13.0591L0.307692 7.88988L0.184615 7.70527Z" fill="#0AD69C"/>
</svg>
